<svg width="195" height="40" viewBox="0 0 195 40" fill="none" xmlns="http://www.w3.org/2000/svg">
<path fill-rule="evenodd" clip-rule="evenodd" d="M7.5 10C7.5 8.61929 8.61929 7.5 10 7.5H13.75C15.1307 7.5 16.25 8.61929 16.25 10V30C16.25 31.3807 15.1307 32.5 13.75 32.5H10C8.61929 32.5 7.5 31.3807 7.5 30V10ZM13.75 10H10V30H13.75V10Z" fill="#5D32F5"/>
<path fill-rule="evenodd" clip-rule="evenodd" d="M23.75 10C23.75 8.61929 24.8693 7.5 26.25 7.5H30C31.3807 7.5 32.5 8.61929 32.5 10V30C32.5 31.3807 31.3807 32.5 30 32.5H26.25C24.8693 32.5 23.75 31.3807 23.75 30V10ZM30 10H26.25V30H30V10Z" fill="#5D32F5"/>
<path fill-rule="evenodd" clip-rule="evenodd" d="M30 12.5C30 11.8096 30.5596 11.25 31.25 11.25H35C35.663 11.25 36.2989 11.5134 36.7678 11.9822C37.2366 12.4511 37.5 13.087 37.5 13.75V26.25C37.5 26.913 37.2366 27.5489 36.7678 28.0178C36.2989 28.4866 35.663 28.75 35 28.75H31.25C30.5596 28.75 30 28.1904 30 27.5C30 26.8096 30.5596 26.25 31.25 26.25H35L35 13.75L31.25 13.75C30.5596 13.75 30 13.1904 30 12.5Z" fill="#5D32F5"/>
<path fill-rule="evenodd" clip-rule="evenodd" d="M3.23223 11.9822C3.70107 11.5134 4.33696 11.25 5 11.25H8.75C9.44036 11.25 10 11.8096 10 12.5C10 13.1904 9.44036 13.75 8.75 13.75L5 13.75V26.25H8.75C9.44036 26.25 10 26.8096 10 27.5C10 28.1904 9.44036 28.75 8.75 28.75H5C4.33696 28.75 3.70108 28.4866 3.23223 28.0178C2.76339 27.5489 2.5 26.913 2.5 26.25V13.75C2.5 13.087 2.76339 12.4511 3.23223 11.9822Z" fill="#5D32F5"/>
<path fill-rule="evenodd" clip-rule="evenodd" d="M13.75 20C13.75 19.3096 14.3096 18.75 15 18.75H25C25.6904 18.75 26.25 19.3096 26.25 20C26.25 20.6904 25.6904 21.25 25 21.25H15C14.3096 21.25 13.75 20.6904 13.75 20Z" fill="#5D32F5"/>
<path fill-rule="evenodd" clip-rule="evenodd" d="M35 20C35 19.3096 35.5596 18.75 36.25 18.75H38.75C39.4404 18.75 40 19.3096 40 20C40 20.6904 39.4404 21.25 38.75 21.25H36.25C35.5596 21.25 35 20.6904 35 20Z" fill="#5D32F5"/>
<path fill-rule="evenodd" clip-rule="evenodd" d="M0 20C0 19.3096 0.559644 18.75 1.25 18.75H3.75C4.44036 18.75 5 19.3096 5 20C5 20.6904 4.44036 21.25 3.75 21.25H1.25C0.559644 21.25 0 20.6904 0 20Z" fill="#5D32F5"/>
<path d="M64.5742 24.291C64.5742 23.9355 64.5195 23.6165 64.4102 23.334C64.3099 23.0423 64.1185 22.778 63.8359 22.541C63.5534 22.2949 63.1569 22.0534 62.6465 21.8164C62.1361 21.5794 61.4753 21.3333 60.6641 21.0781C59.7617 20.7865 58.9049 20.4583 58.0938 20.0938C57.2917 19.7292 56.5807 19.3053 55.9609 18.8223C55.3503 18.3301 54.8672 17.7604 54.5117 17.1133C54.1654 16.4661 53.9922 15.7142 53.9922 14.8574C53.9922 14.028 54.1745 13.276 54.5391 12.6016C54.9036 11.918 55.4141 11.3346 56.0703 10.8516C56.7266 10.3594 57.5013 9.98112 58.3945 9.7168C59.2969 9.45247 60.2858 9.32031 61.3613 9.32031C62.8288 9.32031 64.1094 9.58464 65.2031 10.1133C66.2969 10.6419 67.1445 11.3665 67.7461 12.2871C68.3568 13.2077 68.6621 14.2604 68.6621 15.4453H64.5879C64.5879 14.862 64.4648 14.3516 64.2188 13.9141C63.9818 13.4674 63.6172 13.1165 63.125 12.8613C62.6419 12.6061 62.0312 12.4785 61.293 12.4785C60.582 12.4785 59.9896 12.5879 59.5156 12.8066C59.0417 13.0163 58.6862 13.3034 58.4492 13.668C58.2122 14.0234 58.0938 14.4245 58.0938 14.8711C58.0938 15.2083 58.1758 15.5137 58.3398 15.7871C58.513 16.0605 58.7682 16.3158 59.1055 16.5527C59.4427 16.7897 59.8574 17.013 60.3496 17.2227C60.8418 17.4323 61.4115 17.6374 62.0586 17.8379C63.1432 18.166 64.0957 18.5352 64.916 18.9453C65.7454 19.3555 66.4382 19.8158 66.9941 20.3262C67.5501 20.8366 67.9694 21.4154 68.252 22.0625C68.5345 22.7096 68.6758 23.4434 68.6758 24.2637C68.6758 25.1296 68.5072 25.9043 68.1699 26.5879C67.8327 27.2715 67.3451 27.8503 66.707 28.3242C66.069 28.7982 65.3079 29.1582 64.4238 29.4043C63.5397 29.6504 62.5508 29.7734 61.457 29.7734C60.4727 29.7734 59.502 29.6458 58.5449 29.3906C57.5879 29.1263 56.7174 28.7298 55.9336 28.2012C55.1589 27.6725 54.5391 26.998 54.0742 26.1777C53.6094 25.3574 53.377 24.3867 53.377 23.2656H57.4922C57.4922 23.8854 57.5879 24.4095 57.7793 24.8379C57.9707 25.2663 58.2396 25.6126 58.5859 25.877C58.9414 26.1413 59.3607 26.3327 59.8438 26.4512C60.3359 26.5697 60.8737 26.6289 61.457 26.6289C62.168 26.6289 62.7513 26.5286 63.207 26.3281C63.6719 26.1276 64.0137 25.8496 64.2324 25.4941C64.4603 25.1387 64.5742 24.7376 64.5742 24.291ZM75.1562 17.5508V35.1875H71.2188V14.707H74.8691L75.1562 17.5508ZM84.5215 21.9395V22.2266C84.5215 23.3021 84.3939 24.3001 84.1387 25.2207C83.8926 26.1413 83.528 26.9434 83.0449 27.627C82.5618 28.3014 81.9603 28.8301 81.2402 29.2129C80.5293 29.5866 79.709 29.7734 78.7793 29.7734C77.877 29.7734 77.0931 29.5911 76.4277 29.2266C75.7624 28.862 75.2018 28.3516 74.7461 27.6953C74.2995 27.0299 73.9395 26.2598 73.666 25.3848C73.3926 24.5098 73.1829 23.571 73.0371 22.5684V21.8164C73.1829 20.7409 73.3926 19.7565 73.666 18.8633C73.9395 17.9609 74.2995 17.1816 74.7461 16.5254C75.2018 15.86 75.7578 15.3451 76.4141 14.9805C77.0794 14.6159 77.8587 14.4336 78.752 14.4336C79.6908 14.4336 80.5156 14.6113 81.2266 14.9668C81.9466 15.3223 82.5482 15.8327 83.0312 16.498C83.5234 17.1634 83.8926 17.9564 84.1387 18.877C84.3939 19.7975 84.5215 20.8184 84.5215 21.9395ZM80.5703 22.2266V21.9395C80.5703 21.3105 80.5156 20.7318 80.4062 20.2031C80.306 19.6654 80.1419 19.196 79.9141 18.7949C79.6953 18.3939 79.4036 18.084 79.0391 17.8652C78.6836 17.6374 78.2507 17.5234 77.7402 17.5234C77.2025 17.5234 76.7422 17.61 76.3594 17.7832C75.9857 17.9564 75.6803 18.207 75.4434 18.5352C75.2064 18.8633 75.0286 19.2552 74.9102 19.7109C74.7917 20.1667 74.7188 20.6816 74.6914 21.2559V23.1562C74.737 23.8307 74.8646 24.4368 75.0742 24.9746C75.2839 25.5033 75.6074 25.9225 76.0449 26.2324C76.4824 26.5423 77.0566 26.6973 77.7676 26.6973C78.2871 26.6973 78.7246 26.5833 79.0801 26.3555C79.4355 26.1185 79.7227 25.7949 79.9414 25.3848C80.1693 24.9746 80.3288 24.5007 80.4199 23.9629C80.5202 23.4251 80.5703 22.8464 80.5703 22.2266ZM94.9531 26.1641V19.5742C94.9531 19.1003 94.8757 18.6947 94.7207 18.3574C94.5658 18.0111 94.3242 17.7422 93.9961 17.5508C93.6771 17.3594 93.2624 17.2637 92.752 17.2637C92.3145 17.2637 91.9362 17.3411 91.6172 17.4961C91.2982 17.6419 91.0521 17.8561 90.8789 18.1387C90.7057 18.4121 90.6191 18.7357 90.6191 19.1094H86.6816C86.6816 18.4805 86.8275 17.8835 87.1191 17.3184C87.4108 16.7533 87.8346 16.2565 88.3906 15.8281C88.9466 15.3906 89.6074 15.0488 90.373 14.8027C91.1478 14.5566 92.0137 14.4336 92.9707 14.4336C94.1191 14.4336 95.14 14.625 96.0332 15.0078C96.9264 15.3906 97.6283 15.9648 98.1387 16.7305C98.6582 17.4961 98.918 18.4531 98.918 19.6016V25.9316C98.918 26.7428 98.9681 27.4082 99.0684 27.9277C99.1686 28.4382 99.3145 28.8848 99.5059 29.2676V29.5H95.5273C95.3359 29.099 95.1901 28.5977 95.0898 27.9961C94.9987 27.3854 94.9531 26.7747 94.9531 26.1641ZM95.4727 20.4902L95.5 22.7188H93.2988C92.7793 22.7188 92.3281 22.778 91.9453 22.8965C91.5625 23.015 91.248 23.1836 91.002 23.4023C90.7559 23.612 90.5736 23.8581 90.4551 24.1406C90.3457 24.4232 90.291 24.7331 90.291 25.0703C90.291 25.4076 90.3685 25.7129 90.5234 25.9863C90.6784 26.2507 90.9017 26.4603 91.1934 26.6152C91.485 26.7611 91.8268 26.834 92.2188 26.834C92.8112 26.834 93.3262 26.7155 93.7637 26.4785C94.2012 26.2415 94.5384 25.9499 94.7754 25.6035C95.0215 25.2572 95.1491 24.929 95.1582 24.6191L96.1973 26.2871C96.0514 26.6608 95.8509 27.0482 95.5957 27.4492C95.3496 27.8503 95.0352 28.2285 94.6523 28.584C94.2695 28.9303 93.8092 29.2174 93.2715 29.4453C92.7337 29.6641 92.0957 29.7734 91.3574 29.7734C90.4186 29.7734 89.5664 29.5866 88.8008 29.2129C88.0443 28.8301 87.4427 28.306 86.9961 27.6406C86.5586 26.9661 86.3398 26.2005 86.3398 25.3438C86.3398 24.569 86.4857 23.8809 86.7773 23.2793C87.069 22.6777 87.4974 22.1719 88.0625 21.7617C88.6367 21.3424 89.3522 21.028 90.209 20.8184C91.0658 20.5996 92.0592 20.4902 93.1895 20.4902H95.4727ZM108.064 26.6973C108.548 26.6973 108.976 26.6061 109.35 26.4238C109.723 26.2324 110.015 25.9681 110.225 25.6309C110.443 25.2845 110.557 24.8789 110.566 24.4141H114.271C114.262 25.4531 113.984 26.3783 113.438 27.1895C112.891 27.9915 112.157 28.625 111.236 29.0898C110.316 29.5456 109.286 29.7734 108.146 29.7734C106.998 29.7734 105.995 29.582 105.139 29.1992C104.291 28.8164 103.585 28.2878 103.02 27.6133C102.454 26.9297 102.031 26.1367 101.748 25.2344C101.465 24.3229 101.324 23.3477 101.324 22.3086V21.9121C101.324 20.8639 101.465 19.8887 101.748 18.9863C102.031 18.0749 102.454 17.2819 103.02 16.6074C103.585 15.9238 104.291 15.3906 105.139 15.0078C105.986 14.625 106.98 14.4336 108.119 14.4336C109.331 14.4336 110.393 14.666 111.305 15.1309C112.225 15.5957 112.945 16.2611 113.465 17.127C113.993 17.9837 114.262 19 114.271 20.1758H110.566C110.557 19.6836 110.452 19.237 110.252 18.8359C110.061 18.4349 109.778 18.1159 109.404 17.8789C109.04 17.6328 108.589 17.5098 108.051 17.5098C107.477 17.5098 107.007 17.6328 106.643 17.8789C106.278 18.1159 105.995 18.444 105.795 18.8633C105.594 19.2734 105.453 19.7428 105.371 20.2715C105.298 20.791 105.262 21.3379 105.262 21.9121V22.3086C105.262 22.8828 105.298 23.4342 105.371 23.9629C105.444 24.4915 105.581 24.9609 105.781 25.3711C105.991 25.7812 106.278 26.1048 106.643 26.3418C107.007 26.5788 107.481 26.6973 108.064 26.6973ZM123.363 29.7734C122.215 29.7734 121.185 29.5911 120.273 29.2266C119.362 28.8529 118.587 28.3379 117.949 27.6816C117.32 27.0254 116.837 26.2643 116.5 25.3984C116.163 24.5234 115.994 23.5938 115.994 22.6094V22.0625C115.994 20.9414 116.154 19.916 116.473 18.9863C116.792 18.0566 117.247 17.25 117.84 16.5664C118.441 15.8828 119.171 15.3587 120.027 14.9941C120.884 14.6204 121.85 14.4336 122.926 14.4336C123.974 14.4336 124.904 14.6068 125.715 14.9531C126.526 15.2995 127.205 15.7917 127.752 16.4297C128.308 17.0677 128.727 17.8333 129.01 18.7266C129.292 19.6107 129.434 20.5951 129.434 21.6797V23.3203H117.676V20.6953H125.564V20.3945C125.564 19.8477 125.464 19.36 125.264 18.9316C125.072 18.4941 124.781 18.1478 124.389 17.8926C123.997 17.6374 123.495 17.5098 122.885 17.5098C122.365 17.5098 121.919 17.6237 121.545 17.8516C121.171 18.0794 120.866 18.3984 120.629 18.8086C120.401 19.2188 120.228 19.7018 120.109 20.2578C120 20.8047 119.945 21.4062 119.945 22.0625V22.6094C119.945 23.2018 120.027 23.7487 120.191 24.25C120.365 24.7513 120.606 25.1842 120.916 25.5488C121.235 25.9134 121.618 26.196 122.064 26.3965C122.52 26.597 123.035 26.6973 123.609 26.6973C124.32 26.6973 124.981 26.5605 125.592 26.2871C126.212 26.0046 126.745 25.5807 127.191 25.0156L129.105 27.0938C128.796 27.5404 128.372 27.9688 127.834 28.3789C127.305 28.7891 126.667 29.1263 125.92 29.3906C125.173 29.6458 124.32 29.7734 123.363 29.7734ZM154.672 19.0957V26.9844C154.362 27.3581 153.883 27.7637 153.236 28.2012C152.589 28.6296 151.755 28.9987 150.734 29.3086C149.714 29.6185 148.479 29.7734 147.029 29.7734C145.744 29.7734 144.573 29.5638 143.516 29.1445C142.458 28.7161 141.547 28.0918 140.781 27.2715C140.025 26.4512 139.441 25.4486 139.031 24.2637C138.621 23.0697 138.416 21.707 138.416 20.1758V18.9316C138.416 17.4004 138.612 16.0378 139.004 14.8438C139.405 13.6497 139.975 12.6426 140.713 11.8223C141.451 11.002 142.331 10.3776 143.352 9.94922C144.372 9.52083 145.507 9.30664 146.756 9.30664C148.488 9.30664 149.91 9.58919 151.021 10.1543C152.133 10.7103 152.981 11.485 153.564 12.4785C154.157 13.4629 154.521 14.5931 154.658 15.8691H150.68C150.579 15.1947 150.388 14.6068 150.105 14.1055C149.823 13.6042 149.417 13.2122 148.889 12.9297C148.369 12.6471 147.695 12.5059 146.865 12.5059C146.182 12.5059 145.571 12.6471 145.033 12.9297C144.505 13.2031 144.058 13.6087 143.693 14.1465C143.329 14.6842 143.051 15.3496 142.859 16.1426C142.668 16.9355 142.572 17.8561 142.572 18.9043V20.1758C142.572 21.2148 142.673 22.1354 142.873 22.9375C143.074 23.7305 143.37 24.4004 143.762 24.9473C144.163 25.485 144.655 25.8906 145.238 26.1641C145.822 26.4375 146.501 26.5742 147.275 26.5742C147.923 26.5742 148.46 26.5195 148.889 26.4102C149.326 26.3008 149.677 26.1686 149.941 26.0137C150.215 25.8496 150.424 25.6947 150.57 25.5488V22.0215H146.824V19.0957H154.672ZM162.123 27.832L166.047 14.707H170.271L164.324 31.7285C164.197 32.1022 164.023 32.5033 163.805 32.9316C163.595 33.36 163.308 33.7656 162.943 34.1484C162.588 34.5404 162.137 34.8594 161.59 35.1055C161.052 35.3516 160.391 35.4746 159.607 35.4746C159.234 35.4746 158.928 35.4518 158.691 35.4062C158.454 35.3607 158.172 35.2969 157.844 35.2148V32.3301C157.944 32.3301 158.049 32.3301 158.158 32.3301C158.268 32.3392 158.372 32.3438 158.473 32.3438C158.992 32.3438 159.416 32.2845 159.744 32.166C160.072 32.0475 160.337 31.8652 160.537 31.6191C160.738 31.3822 160.897 31.0723 161.016 30.6895L162.123 27.832ZM160.482 14.707L163.695 25.4258L164.256 29.5957L161.576 29.8828L156.258 14.707H160.482ZM175.781 17.7695V29.5H171.83V14.707H175.535L175.781 17.7695ZM175.234 21.584H174.141C174.141 20.554 174.264 19.6061 174.51 18.7402C174.765 17.8652 175.134 17.1087 175.617 16.4707C176.109 15.8236 176.715 15.3223 177.436 14.9668C178.156 14.6113 178.99 14.4336 179.938 14.4336C180.594 14.4336 181.195 14.5339 181.742 14.7344C182.289 14.9258 182.758 15.2311 183.15 15.6504C183.551 16.0605 183.861 16.5983 184.08 17.2637C184.299 17.9199 184.408 18.7083 184.408 19.6289V29.5H180.471V20.0664C180.471 19.3919 180.38 18.8724 180.197 18.5078C180.015 18.1432 179.755 17.888 179.418 17.7422C179.09 17.5964 178.693 17.5234 178.229 17.5234C177.718 17.5234 177.271 17.6283 176.889 17.8379C176.515 18.0475 176.205 18.3392 175.959 18.7129C175.713 19.0775 175.531 19.5059 175.412 19.998C175.294 20.4902 175.234 21.0189 175.234 21.584ZM184.039 21.1328L182.631 21.3105C182.631 20.3444 182.749 19.4466 182.986 18.6172C183.232 17.7878 183.592 17.0586 184.066 16.4297C184.549 15.8008 185.146 15.3132 185.857 14.9668C186.568 14.6113 187.389 14.4336 188.318 14.4336C189.029 14.4336 189.676 14.5384 190.26 14.748C190.843 14.9486 191.34 15.2721 191.75 15.7188C192.169 16.1562 192.488 16.7305 192.707 17.4414C192.935 18.1523 193.049 19.0228 193.049 20.0527V29.5H189.098V20.0527C189.098 19.3691 189.007 18.8496 188.824 18.4941C188.651 18.1296 188.396 17.8789 188.059 17.7422C187.73 17.5964 187.339 17.5234 186.883 17.5234C186.409 17.5234 185.994 17.6191 185.639 17.8105C185.283 17.9928 184.987 18.248 184.75 18.5762C184.513 18.9043 184.335 19.2871 184.217 19.7246C184.098 20.153 184.039 20.6224 184.039 21.1328Z" fill="white"/>
</svg>
